<svg width="13" height="19" viewBox="0 0 13 19" fill="none" xmlns="http://www.w3.org/2000/svg">
  <path
    d="M7.6808 15.6478L5.3283 15.6154C5.04667 15.6154 4.81473 15.8265 4.81473 16.1026V17.2559C4.79816 18.1655 5.52711 18.9126 6.45485 18.9289C7.38259 18.9289 8.14467 18.2142 8.16124 17.3046V16.1514C8.16124 15.8752 7.94587 15.6478 7.6808 15.6478Z"
    fill="#000000" />
  <path
    d="M6.17446 0.0227329C2.89422 0.18516 0.210387 2.80023 0.0115847 6.00005C-0.104383 7.93293 0.657692 9.70338 1.96647 10.9378H1.98304L2.43035 11.3439L4.31897 12.9519C4.51777 13.1306 4.78284 13.2281 5.04791 13.2281H7.94711C8.21218 13.2281 8.47725 13.1306 8.67605 12.9519L10.6309 11.2789L10.9457 11.019C12.2048 9.84957 13 8.20905 13 6.37363C13 2.75151 9.902 -0.155937 6.17446 0.0064898V0.0227329ZM6.48922 3.40122C8.16248 3.40122 9.52096 4.73312 9.52096 6.37363C9.52096 8.01414 8.16248 9.34605 6.48922 9.34605C4.81597 9.34605 3.45749 8.01414 3.45749 6.37363C3.45749 4.73312 4.81597 3.40122 6.48922 3.40122Z"
    fill="#000000" />
</svg>